<svg width="837.686" xmlns="http://www.w3.org/2000/svg" height="837.668" viewBox="0 0 837.686 837.668" xmlns:xlink="http://www.w3.org/1999/xlink" enable-background="new 0 0 837.686 837.668">
<path d="M557.282,402.321c-3.576-31.994-16.775-59.495-39.607-82.311c-22.828-22.696-50.166-35.894-82.326-39.626V0   C544.54,4.201,637.745,45.038,714.963,122.71c77.666,77.216,118.535,170.42,122.723,279.611H557.282z"/>
<path d="m280.404,401.943h-70.696c4.203-51.275 24.548-95.071 61.378-131.266 36.195-36.818 79.991-57.01 131.252-60.589v69.903c-32.16,3.579-59.498,16.776-82.325,39.606-22.833,22.697-36.032,50.185-39.609,82.346z"/>
<path d="m435.743,627.958v-70.676c31.525-3.732 58.709-16.93 81.553-39.623 22.832-22.832 36.195-50.316 40.381-82.328h69.906c-4.188,51.258-24.393,94.918-60.586,131.266-36.198,36.665-79.995,57.161-131.254,61.361z"/>
<path d="m418.66,349.12c19.1,0 35.711,6.677 49.698,20.191 13.516,13.364 20.209,29.993 20.209,49.713 0,19.113-6.693,35.724-20.209,49.71-13.986,13.365-30.598,20.193-49.698,20.193-19.736,0-36.196-6.828-49.727-20.193-13.5-13.986-20.176-30.598-20.176-49.71 0-19.72 6.676-36.349 20.176-49.713 13.531-13.514 29.991-20.191 49.727-20.191z"/>
<path d="m696.059,435.725c-8.449,140.172-120.525,252.094-260.711,260.355v141.172c218.023-8.465 393.25-183.537 401.91-401.527h-141.199z"/>
<path d="m401.927,837.459v-141.207c-140.169-8.447-252.09-120.523-260.343-260.711h-141.173l-.411-.21v402.338l401.927-.21z"/>
<path d="M141.61,401.943c8.45-140.019,120.302-251.882,260.332-260.333V0.417C184.075,9.079,9.07,184.086,0.422,401.943H141.61z"/>
</svg>
